<svg version="1.1" xmlns="http://www.w3.org/2000/svg" xmlns:xlink="http://www.w3.org/1999/xlink" width="1560" height="804"><defs/><g><path fill="none" stroke="#02063B" paint-order="fill stroke markers" d=" M 20 431.2202640868096 L 21 432.6417518899537 L 22 434.05748978265933 L 23 435.46721210237195 L 24 436.87065431535615 L 25 438.26755306633595 L 26 439.6576462279128 L 27 441.0406729497537 L 28 442.41637370754 L 29 443.7844903516667 L 30 445.1447661556842 L 31 446.49694586447276 L 32 447.84077574214126 L 33 449.1760036196405 L 34 450.50237894208254 L 35 451.8196528157573 L 36 453.12757805483733 L 37 454.42590922776196 L 38 455.7144027032927 L 39 456.9928166962304 L 40 458.260911312786 L 41 459.5184485955967 L 42 460.7651925683783 L 43 462.00090928020643 L 44 463.2253668494169 L 45 464.43833550711844 L 46 465.6395876403086 L 47 466.8288978345854 L 48 468.00604291644606 L 49 469.17080199516545 L 50 470.3229565042461 L 51 471.4622902424324 L 52 472.58858941428 L 53 473.70164267027525 L 54 474.8012411464941 L 55 475.88717850379584 L 56 476.95925096654236 L 57 478.01725736083637 L 58 479.0609991522719 L 59 480.0902804831891 L 60 481.1049082094265 L 61 482.10469193656513 L 62 483.0894440556551 L 63 484.05897977842113 L 64 485.0131171719373 L 65 485.9516771927672 L 66 486.874483720561 L 67 487.7813635911045 L 68 488.6721466288134 L 69 489.5466656786664 L 70 490.4047566375721 L 71 491.2462584851626 L 72 492.07101331400906 L 73 492.8788663592528 L 74 493.66966602764705 L 75 494.44326392600306 L 76 495.19951488903644 L 77 495.938277006607 L 78 496.65941165034815 L 79 497.36278349968063 L 80 498.0482605672054 L 81 498.7157142234705 L 82 499.36501922110904 L 83 499.99605371834133 L 84 500.6086993018385 L 85 501.20284100894276 L 86 501.77836734924017 L 87 502.33517032548156 L 88 502.87314545384845 L 89 503.39219178355904 L 90 503.89221191581197 L 91 504.37311202206274 L 92 504.8348018616309 L 93 505.2771947986337 L 94 505.7002078182428 L 95 506.10376154226276 L 96 506.4877802440255 L 97 506.85219186260093 L 98 507.19692801631896 L 99 507.52192401560126 L 100 507.82711887510027 L 101 508.1124553251431 L 102 508.37787982247806 L 103 508.62334256032216 L 104 508.84879747770714 L 105 509.0542022681231 L 106 509.23951838745694 L 107 509.40471106122544 L 108 509.5497492911004 L 109 509.6746058607257 L 110 509.7792573408244 L 111 509.8636840935951 L 112 509.927870276397 L 113 509.9718038447229 L 114 509.9954765544592 L 115 509.9988839634329 L 116 509.9820254322454 L 117 509.94490412439217 L 118 509.8875270056693 L 119 509.80990484286633 L 120 509.7120522017459 L 121 509.59398744431036 L 122 509.4557327253564 L 123 509.29731398831757 L 124 509.1187609603958 L 125 508.9201071469834 L 126 508.7013898253758 L 127 508.4626500377763 L 128 508.2039325835946 L 129 507.92528601104027 L 130 507.62676260801237 L 131 507.30841839228833 L 132 506.9703131010115 L 133 506.6125101794821 L 134 506.2350767692512 L 135 505.8380836955221 L 136 505.4216054538597 L 137 504.9857201962117 L 138 504.53050971624316 L 139 504.05605943398825 L 140 503.5624583798209 L 141 503.0497991777486 L 142 502.5181780280311 L 143 501.96769468912913 L 144 501.39845245898425 L 145 500.81055815563525 L 146 500.20412209717364 L 147 499.5792580810427 L 148 498.93608336268346 L 149 498.27471863353156 L 150 497.59528799836966 L 151 496.8979189520393 L 152 496.18274235551644 L 153 495.4498924113556 L 154 494.6995066385068 L 155 493.9317258465099 L 156 493.14669410907214 L 157 492.3445587370326 L 158 491.5254702507195 L 159 490.6895823517048 L 160 489.8370518939626 L 161 488.96803885443535 L 162 488.0827063030142 L 163 487.1812203719393 L 164 486.26375022462463 L 165 485.3304680239151 L 166 484.38154889978 L 167 483.4171709164501 L 168 482.4375150390037 L 169 481.4427650994089 L 170 480.4331077620276 L 171 479.4087324885877 L 172 478.3698315026312 L 173 477.31659975344314 L 174 476.2492348794695 L 175 475.1679371712308 L 176 474.07290953373706 L 177 472.96435744841335 L 178 471.842488934541 L 179 470.707514510223 L 180 469.5596471528802 L 181 468.3991022592864 L 182 467.2260976051491 L 183 466.0408533042442 L 184 464.8435917671113 L 185 463.6345376593191 L 186 462.4139178593065 L 187 461.18196141580916 L 188 459.9388995048786 L 189 458.68496538650214 L 190 457.4203943608318 L 191 456.1454237240302 L 192 454.8602927237422 L 193 453.56524251420007 L 194 452.2605161109711 L 195 450.94635834535575 L 196 449.62301581844537 L 197 448.29073685484735 L 198 446.9497714560873 L 199 445.60037125369644 L 200 444.24278946199263 L 201 442.87728083056544 L 202 441.50410159647214 L 203 440.123509436155 L 204 438.7357634170885 L 205 437.3411239491652 L 206 435.9398527358303 L 207 434.53221272497285 L 208 433.11846805958373 L 209 431.6988840281896 L 210 430.2737270150711 L 211 428.8432644502766 L 212 427.4077647594386 L 213 425.9674973134039 L 214 424.52273237768657 L 215 423.0737410617524 L 216 421.62079526814523 L 217 420.1641676414651 L 218 418.7041315172062 L 219 417.24096087046564 L 220 415.7749302645324 L 221 414.3063147993651 L 222 412.83539005997045 L 223 411.3624320646891 L 224 409.88771721340123 L 225 408.41152223566024 L 226 406.93412413876473 L 227 405.4558001557778 L 228 403.97682769350484 L 229 402.497484280438 L 230 401.01804751467813 L 231 399.5387950118438 L 232 398.0600043529766 L 233 396.5819530324533 L 234 395.10491840591436 L 235 393.6291776382178 L 236 392.1550076514299 L 237 390.6826850728605 L 238 389.2124861831543 L 239 387.7446868644464 L 240 386.2795625485941 L 241 384.817388165491 L 242 383.35843809147775 L 243 381.90298609785464 L 244 380.4513052995089 L 245 379.0036681036646 L 246 377.56034615876587 L 247 376.1216103035019 L 248 374.6877305159843 L 249 373.25897586308577 L 250 371.8356144499501 L 251 370.41791336968197 L 252 369.00613865322737 L 253 367.6005552194527 L 254 366.2014268254333 L 255 364.8090160169591 L 256 363.4235840792684 L 257 362.0453909880175 L 258 360.6746953604966 L 259 359.31175440710047 L 260 357.9568238830627 L 261 356.6101580404637 L 262 355.27200958052015 L 263 353.94262960616595 L 264 352.6222675749327 L 265 351.31117125213916 L 266 350.00958666439834 L 267 348.71775805345055 L 268 347.4359278303315 L 269 346.16433652988434 L 270 344.9032227656229 L 271 343.65282318495633 L 272 342.41337242478244 L 273 341.1851030674576 L 274 339.9682455971534 L 275 338.76302835660607 L 276 337.56967750426827 L 277 336.3884169718704 L 278 335.2194684223998 L 279 334.0630512085063 L 280 332.91938233134016 L 281 331.7886763998323 L 282 330.6711455904229 L 283 329.56699960724677 L 284 328.4764456427822 L 285 327.39968833897154 L 286 326.33692974882024 L 287 325.2883692984816 L 288 324.2542037498347 L 289 323.234627163562 L 290 322.2298308627338 L 291 321.2400033969071 L 292 320.26533050674374 L 293 319.3059950891566 L 294 318.3621771629889 L 295 317.434053835234 L 296 316.521799267801 L 297 315.6255846448337 L 298 314.74557814058767 L 299 313.8819448878728 L 300 313.0348469470656 L 301 312.2044432756994 L 302 311.3908896986355 L 303 310.59433887882267 L 304 309.81494028865063 L 305 309.0528401819008 L 306 308.3081815663027 L 307 307.5811041766977 L 308 306.87174444881873 L 309 306.1802354936875 L 310 305.5067070726367 L 311 304.85128557296 L 312 304.21409398419604 L 313 303.5952518750489 L 314 302.9948753709515 L 315 302.41307713227457 L 316 301.849966333186 L 317 301.30564864116445 L 318 300.7802261971707 L 319 300.273797596481 L 320 299.78645787018604 L 321 299.31829846735775 L 322 298.86940723788973 L 323 298.43986841601156 L 324 298.02976260448264 L 325 297.6391667594671 L 326 297.26815417609293 L 327 296.9167944746982 L 328 296.58515358776674 L 329 296.2732937475564 L 330 295.98127347442045 L 331 295.70914756582687 L 332 295.4569670860754 L 333 295.2247793567153 L 334 295.01262794766564 L 335 294.8205526690393 L 336 294.6485895636726 L 337 294.49677090036204 L 338 294.3651251678089 L 339 294.25367706927346 L 340 294.1624475179393 L 341 294.0914536329893 L 342 294.0407087363927 L 343 294.0102223504057 L 344 294.0000001957844 L 345 294.0100441907113 L 346 294.04035245043553 L 347 294.09091928762626 L 348 294.16173521344007 L 349 294.25278693930153 L 350 294.36405737939685 L 351 294.49552565387984 L 352 294.64716709279014 L 353 294.8189532406826 L 354 295.0108518619667 L 355 295.22282694695576 L 356 295.45483871862405 L 357 295.7068436400708 L 358 295.9787944226904 L 359 296.2706400350451 L 360 296.5823257124423 L 361 296.9137929672099 L 362 297.26497959967236 L 363 297.63581970982204 L 364 298.0262437096854 L 365 298.43617833638103 L 366 298.86554666586767 L 367 299.3142681273788 L 368 299.7822585185414 L 369 300.26943002117724 L 370 300.7756912177812 L 371 301.30094710867604 L 372 301.845099129839 L 373 302.4080451713974 L 374 302.9896795967893 L 375 303.5898932625862 L 376 304.2085735389741 L 377 304.84560433088774 L 378 305.50086609979644 L 379 306.1742358861352 L 380 306.8655873323779 L 381 307.5747907067484 L 382 308.3017129275645 L 383 309.0462175882109 L 384 309.8081649827355 L 385 310.5874121320654 L 386 311.3838128108368 L 387 312.1972175748341 L 388 313.027473789033 L 389 313.8744256562426 L 390 314.7379142463401 L 391 315.6177775260949 L 392 316.5138503895733 L 393 317.4259646891206 L 394 318.35394926691436 L 395 319.2976299870817 L 396 320.25682976837606 L 397 321.2313686174062 L 398 322.22106366241195 L 399 323.22572918758027 L 400 324.2451766678942 L 401 325.27921480451005 L 402 326.3276495606541 L 403 327.3902841980339 L 404 328.4669193137555 L 405 329.5573528777424 L 406 330.66138027064505 L 407 331.7787943222386 L 408 332.909385350298 L 409 334.0529411999445 L 410 335.20924728345676 L 411 336.37808662053794 L 412 337.55923987903213 L 413 338.75248541608164 L 414 339.95759931971855 L 415 341.1743554508814 L 416 342.4025254858501 L 417 343.64187895909095 L 418 344.89218330650317 L 419 346.1532039090598 L 420 347.42470413683316 L 421 348.70644539339924 L 422 349.99818716060946 L 423 351.29968704372425 L 424 352.61070081689815 L 425 353.9309824690085 L 426 355.26028424981973 L 427 356.598356716473 L 428 357.9449487802948 L 429 359.29980775391266 L 430 360.6626793986729 L 431 362.03330797234753 L 432 363.4114362771243 L 433 364.7968057078705 L 434 366.18915630065885 L 435 367.5882267815507 L 436 368.99375461562335 L 437 370.40547605623493 L 438 371.823126194516 L 439 373.2464390090799 L 440 374.6751474159415 L 441 376.10898331863507 L 442 377.54767765852284 L 443 378.9909604652835 L 444 380.4385609075721 L 445 381.8902073438413 L 446 383.3456273733152 L 447 384.80454788710443 L 448 386.2666951194557 L 449 387.7317946991235 L 450 389.1995717008554 L 451 390.6697506969825 L 452 392.14205580910215 L 453 393.61621075984755 L 454 395.0919389247302 L 455 396.56896338404886 L 456 398.0470069748534 L 457 399.5257923429537 L 458 401.005041994966 L 459 402.48447835038337 L 460 403.9638237936646 L 461 405.4428007263275 L 462 406.9211316190413 L 463 408.398539063704 L 464 409.8747458254982 L 465 411.34947489491435 L 466 412.82244953973077 L 467 414.2933933569431 L 468 415.7620303246306 L 469 417.2280848537519 L 470 418.6912818398589 L 471 420.1513467147202 L 472 421.60800549784375 L 473 423.0609848478887 L 474 424.51001211395834 L 475 425.95481538676256 L 476 427.39512354964177 L 477 428.83066632944144 L 478 430.26117434722914 L 479 431.686379168843 L 480 433.1060133552636 L 481 434.5198105127986 L 482 435.92750534307123 L 483 437.3288336928039 L 484 438.7235326033857 L 485 440.11134036021735 L 486 441.4919965418209 L 487 442.8652420687085 L 488 444.23081925199807 L 489 445.5884718417685 L 490 446.9379450751453 L 491 448.27898572410595 L 492 449.61134214299886 L 493 450.93476431576374 L 494 452.2490039028479 L 495 453.5538142878062 L 496 454.84895062357896 L 497 456.13416987843743 L 498 457.40923088158837 L 499 458.6738943684297 L 500 459.92792302544854 L 501 461.1710815347527 L 502 462.4031366182283 L 503 463.62385708131393 L 504 464.83301385638475 L 505 466.03038004573614 L 506 467.21573096416176 L 507 468.38884418111496 L 508 469.5494995624484 L 509 470.6974793117213 L 510 471.83256801106984 L 511 472.95455266162924 L 512 474.0632227235037 L 513 475.15837015527364 L 514 476.2397894530347 L 515 477.3072776889605 L 516 478.36063454938176 L 517 479.3996623723755 L 518 480.42416618485555 L 519 481.43395373915996 L 520 482.42883554912544 L 521 483.4086249256447 L 522 484.37313801169876 L 523 485.32219381685707 L 524 486.255614251241 L 525 487.1732241589417 L 526 488.07485135088837 L 527 488.96032663715914 L 528 489.8294838587301 L 529 490.6821599186543 L 530 491.51819481266705 L 531 492.3374316592109 L 532 493.13971672887385 L 533 493.92489947323725 L 534 494.6928325531255 L 535 495.4433718662547 L 536 496.17637657427315 L 537 496.89170912918945 L 538 497.5892352991837 L 539 498.26882419379564 L 540 498.93034828848647 L 541 499.5736834485686 L 542 500.1987089524996 L 543 500.80530751453534 L 544 501.3933653067389 L 545 501.96277198034 L 546 502.51342068644215 L 547 503.0452080960728 L 548 503.5580344195727 L 549 504.0518034253216 L 550 504.5264224577962 L 551 504.98180245495644 L 552 505.4178579649585 L 553 505.83450716218954 L 554 506.2316718626221 L 555 506.60927753848557 L 556 506.9672533322512 L 557 507.3055320699283 L 558 507.62405027366975 L 559 507.9227481736832 L 560 508.20156971944726 L 561 508.460462590229 L 562 508.69937820490196 L 563 508.91827173106265 L 564 509.1171020934431 L 565 509.2958319816186 L 566 509.4544278570091 L 567 509.59285995917253 L 568 509.7111023113896 L 569 509.80913272553806 L 570 509.88693280625654 L 571 509.94448795439615 L 572 509.98178736976024 L 573 509.9988240531309 L 574 509.99559480758245 L 575 509.9721002390813 L 576 509.9283447563723 L 577 509.8643365701514 L 578 509.7800876915248 L 579 509.6756139297552 L 580 509.55093488929526 L 581 509.40607396610875 L 582 509.2410583432803 L 583 509.05591898591445 L 584 508.85069063532524 L 585 508.6254118025168 L 586 508.380124760957 L 587 508.11487553864464 L 588 507.8297139094725 L 589 507.52469338388715 L 590 507.19987119884786 L 591 506.8553083070859 L 592 506.49106936566733 L 593 506.1072227238593 L 594 505.70384041030496 L 595 505.2809981195072 L 596 504.8387751976244 L 597 504.3772546275816 L 598 503.89652301349815 L 599 503.39667056443716 L 600 502.8777910774772 L 601 502.339981920112 L 602 501.78334401197867 L 603 501.207981805921 L 604 500.61400326838833 L 605 500.0015198591758 L 606 499.3706465105095 L 607 498.72150160547864 L 608 498.0542069558217 L 609 497.36888777906813 L 610 496.6656726750415 L 611 495.9446936017279 L 612 495.20608585051394 L 613 494.4499880207992 L 614 493.6765419939885 L 615 492.88589290686787 L 616 492.07818912436926 L 617 491.25358221173053 L 618 490.41222690605383 L 619 489.5542810872695 L 620 488.67990574851 L 621 487.7892649658995 L 622 486.8825258677651 L 623 485.9598586032751 L 624 485.02143631051126 L 625 484.0674350839787 L 626 483.09803394156216 L 627 482.11341479093346 L 628 481.1137623954166 L 629 480.0992643393171 L 630 479.0701109927215 L 631 478.0264954757748 L 632 476.9686136224417 L 633 475.8966639437582 L 634 474.810847590581 L 635 473.711368315842 L 636 472.5984324363138 L 637 471.4722487938945 L 638 470.3330287164192 L 639 469.1809859780036 L 640 468.01633675892964 L 641 466.8392996050797 L 642 465.65009538692607 L 643 464.44894725808547 L 644 463.2360806134434 L 645 462.0117230468596 L 646 460.77610430845965 L 647 459.5294562615235 L 648 458.27201283897483 L 649 457.0040099994851 L 650 455.72568568319514 L 651 454.43727976706606 L 652 453.13903401986687 L 653 451.8311920568058 L 654 450.51399929381677 L 655 449.1877029015067 L 656 447.8525517587749 L 657 446.5087964061097 L 658 445.15668899857593 L 659 443.7964832584973 L 660 442.4284344278459 L 661 441.0527992203465 L 662 439.66983577330353 L 663 438.27980359916216 L 664 436.88296353681085 L 665 435.4795777026356 L 666 434.0699094413329 L 667 432.654223276494 L 668 431.23278486096683 L 669 429.8058609270063 L 670 428.37371923622294 L 671 426.93662852933636 L 672 425.49485847574675 L 673 424.04867962293156 L 674 422.59836334567774 L 675 421.1441817951575 L 676 419.6864078478601 L 677 418.2253150543861 L 678 416.761177588116 L 679 415.2942701937624 L 680 413.82486813581266 L 681 412.3532471468772 L 682 410.8796833759476 L 683 409.4044533365774 L 684 407.9278338549952 L 685 406.4501020181573 L 686 404.971535121753 L 687 403.49241061817 L 688 402.0130060644314 L 689 400.5335990701109 L 690 399.0544672452403 L 691 397.57588814821617 L 692 396.09813923371564 L 693 394.6214978006331 L 694 393.1462409400439 L 695 391.67264548320935 L 696 390.2009879496288 L 697 388.73154449515187 L 698 387.2645908601566 L 699 385.8004023178079 L 700 384.3392536224021 L 701 382.8814189578098 L 702 381.4271718860256 L 703 379.97678529583345 L 704 378.53053135159996 L 705 377.0886814422025 L 706 375.6515061301038 L 707 374.21927510058026 L 708 372.7922571111158 L 709 371.37071994097016 L 710 369.9549303409294 L 711 368.5451539832516 L 712 367.14165541181194 L 713 365.74469799246214 L 714 364.3545438636099 L 715 362.9714538870283 L 716 361.5956875989063 L 717 360.22750316114536 L 718 358.86715731291656 L 719 357.51490532248323 L 720 356.17100093930037 L 721 354.835696346398 L 722 353.5092421130597 L 723 352.1918871478031 L 724 350.8838786516723 L 725 349.58546207185145 L 726 348.29688105560535 L 727 347.0183774045603 L 728 345.7501910293293 L 729 344.4925599044941 L 730 343.2457200239481 L 731 342.00990535661265 L 732 340.7853478025334 L 733 339.57227714936346 L 734 338.370921029245 L 735 337.18150487609296 L 736 336.00425188329325 L 737 334.8393829618203 L 738 333.6871166987838 L 739 332.54766931640995 L 740 331.42125463146806 L 741 330.30808401514804 L 742 329.20836635339623 L 743 328.1223080077188 L 744 327.0501127764572 L 745 325.991981856546 L 746 324.94811380575834 L 747 323.91870450544695 L 748 322.9039471237862 L 749 321.90403207952534 L 750 320.91914700625534 L 751 319.9494767172006 L 752 318.9952031705383 L 753 318.05650543525394 L 754 317.1335596575393 L 755 316.22653902773885 L 756 315.3356137478502 L 757 314.4609509995864 L 758 313.60271491300375 L 759 312.7610665357034 L 760 311.93616380261017 L 761 311.1281615063373 L 762 310.33721126813816 L 763 309.5634615094559 L 764 308.80705742407144 L 765 308.06814095085826 L 766 307.34685074714787 L 767 306.6433221627101 L 768 305.9576872143555 L 769 305.2900745611619 L 770 304.64060948033216 L 771 304.0094138436856 L 772 303.3966060947887 L 773 302.80230122672947 L 774 302.2266107605389 L 775 301.6696427242644 L 776 301.1315016326979 L 777 300.6122884677641 L 778 300.1121006595708 L 779 299.63103206812696 L 780 299.1691729657291 L 781 298.72661002002224 L 782 298.3034262777365 L 783 297.8997011491035 L 784 297.5155103929553 L 785 297.150926102508 L 786 296.80601669183335 L 787 296.4808468830213 L 788 296.17547769403467 L 789 295.8899664272593 L 790 295.6243666587511 L 791 295.37872822818264 L 792 295.1530972294907 L 793 294.9475160022269 L 794 294.7620231236126 L 795 294.5966534012998 L 796 294.4514378668398 L 797 294.3264037698598 L 798 294.2215745729497 L 799 294.1369699472594 L 800 294.0726057688074 L 801 294.02849411550176 L 802 294.00464326487366 L 803 294.001057692524 L 804 294.0177380712839 L 805 294.05468127108793 L 806 294.1118803595619 L 807 294.18932460332366 L 808 294.28699946999694 L 809 294.4048866309387 L 810 294.54296396467805 L 811 294.7012055610679 L 812 294.8795817261465 L 813 295.0780589877098 L 814 295.2966001015923 L 815 295.53516405865594 L 816 295.79370609248554 L 817 296.07217768778924 L 818 296.3705265895021 L 819 296.68869681259196 L 820 297.026628652565 L 821 297.3842586966693 L 822 297.7615198357939 L 823 298.15834127706216 L 824 298.57464855711595 L 825 299.0103635560884 L 826 299.4654045122634 L 827 299.9396860374179 L 828 300.4331191328452 L 829 300.9456112060552 L 830 301.4770660881496 L 831 302.02738405186795 L 832 302.5964618303011 L 833 303.1841926362697 L 834 303.7904661823623 L 835 304.41516870163093 L 836 305.0581829689396 L 837 305.71938832296115 L 838 306.39866068881963 L 839 307.0958726013725 L 840 307.81089322912993 L 841 308.5435883988049 L 842 309.2938206204909 L 843 310.06144911346166 L 844 310.8463298325888 L 845 311.64831549537183 L 846 312.46725560957543 L 847 313.30299650146964 L 848 314.15538134466595 L 849 315.02425018954654 L 850 315.9094399932783 L 851 316.81078465040787 L 852 317.72811502403084 L 853 318.66125897753096 L 854 319.61004140688095 L 855 320.57428427350084 L 856 321.5538066376669 L 857 322.54842469246455 L 858 323.55795179828027 L 859 324.58219851782377 L 860 325.6209726516763 L 861 326.6740792743568 L 862 327.7413207708987 L 863 328.8224968739336 L 864 329.91740470127036 L 865 331.02583879396656 L 866 332.14759115488175 L 867 333.28245128770925 L 868 334.4302062364749 L 869 335.5906406254982 L 870 336.76353669980807 L 871 337.9486743660033 L 872 339.14583123355425 L 873 340.3547826565335 L 874 341.5753017757711 L 875 342.8071595614237 L 876 344.050124855953 L 877 345.3039644175018 L 878 346.5684429636616 L 879 347.8433232156237 L 880 349.12836594270357 L 881 350.42333000723346 L 882 351.72797240981123 L 883 353.0420483348992 L 884 354.3653111967631 L 885 355.69751268574475 L 886 357.03840281485674 L 887 358.3877299666921 L 888 359.745240940641 L 889 361.1106810004024 L 890 362.48379392178674 L 891 363.86432204079523 L 892 365.252006301971 L 893 366.64658630700984 L 894 368.047800363625 L 895 369.45538553465286 L 896 370.86907768739314 L 897 372.28861154317343 L 898 373.713720727128 L 899 375.144137818184 L 900 376.5795943992419 L 901 378.0198211075444 L 902 379.46454768522216 L 903 380.91350303000695 L 904 382.3664152461048 L 905 383.82301169521674 L 906 385.28301904769904 L 907 386.74616333385336 L 908 388.21216999533743 L 909 389.68076393668565 L 910 391.1516695769305 L 911 392.62461090131535 L 912 394.09931151308786 L 913 395.5754946853669 L 914 397.0528834130692 L 915 398.5312004648899 L 916 400.0101684353239 L 917 401.4895097967222 L 918 402.96894695136876 L 919 404.4482022835723 L 920 405.9269982117603 L 921 407.4050572405668 L 922 408.88210201290525 L 923 410.3578553620136 L 924 411.8320403634649 L 925 413.3043803871315 L 926 414.77459914909537 L 927 416.2424207634922 L 928 417.7075697942812 L 929 419.1697713069309 L 930 420.62875092000957 L 931 422.08423485667413 L 932 423.53594999604326 L 933 424.98362392444875 L 934 426.42698498655386 L 935 427.86576233632877 L 936 429.2996859878755 L 937 430.7284868660903 L 938 432.15189685715546 L 939 433.56964885885026 L 940 434.9814768306736 L 941 436.3871158437656 L 942 437.78630213062166 L 943 439.1787731345883 L 944 440.56426755913134 L 945 441.94252541686893 L 946 443.3132880783574 L 947 444.67629832062346 L 948 446.03130037543104 L 949 447.37803997727724 L 950 448.71626441110436 L 951 450.0457225597222 L 952 451.36616495092994 L 953 452.67734380432887 L 954 453.97901307781933 L 955 455.2709285137699 L 956 456.55284768485217 L 957 457.8245300395318 L 958 459.0857369472087 L 959 460.33623174299544 L 960 461.5757797721273 L 961 462.80414843399535 L 962 464.0211072257934 L 963 465.22642778577233 L 964 466.41988393609165 L 965 467.60125172526216 L 966 468.77030947016925 L 967 469.9268377976731 L 968 471.0706196857728 L 969 472.201440504331 L 970 473.3190880553492 L 971 474.42335261278583 L 972 475.5140269619123 L 973 476.59090643819616 L 974 477.6537889657063 L 975 478.7024750950328 L 976 479.7367680407127 L 977 480.75647371815785 L 978 481.7614007800737 L 979 482.7513606523663 L 980 483.72616756952766 L 981 484.68563860949484 L 982 485.629593727975 L 983 486.55785579223095 L 984 487.4702506143197 L 985 488.3666069837785 L 986 489.2467566997533 L 987 490.1105346025606 L 988 490.9577786046804 L 989 491.78832972117095 L 990 492.60203209950294 L 991 493.39873304880507 L 992 494.17828306851607 L 993 494.9405358764386 L 994 495.68534843618914 L 995 496.4125809840384 L 996 497.1220970551384 L 997 497.81376350912956 L 998 498.4874505551246 L 999 499.1430317760639 L 1000 499.78038415243725 L 1001 500.3993880853689 L 1002 500.9999274190598 L 1003 501.5818894625842 L 1004 502.14516501103634 L 1005 502.6896483660225 L 1006 503.2152373554952 L 1007 503.7218333529262 L 1008 504.2093412958127 L 1009 504.677669703517 L 1010 505.1267306944319 L 1011 505.55644000247224 L 1012 505.9667169928868 L 1013 506.3574846773899 L 1014 506.72866972860794 L 1015 507.0802024938394 L 1016 507.41201700812496 L 1017 507.7240510066258 L 1018 508.0162459363079 L 1019 508.288546966929 L 1020 508.5409030013279 L 1021 508.77326668501246 L 1022 508.98559441504597 L 1023 509.177846348229 L 1024 509.349986408576 L 1025 509.5019822940851 L 1026 509.6338054827992 L 1027 509.7454312381585 L 1028 509.83683861364216 L 1029 509.9080104566989 L 1030 509.9589334119654 L 1031 509.9895979237731 L 1032 509.99999823794053 L 1033 509.9901324028536 L 1034 509.9600022698317 L 1035 509.90961349278024 L 1036 509.83897552712966 L 1037 509.7481016280613 L 1038 509.63700884801983 L 1039 509.50571803351363 L 1040 509.35425382120275 L 1041 509.18264463327586 L 1042 508.990922672117 L 1043 508.77912391426275 L 1044 508.54728810365106 L 1045 508.2954587441636 L 1046 508.02368309146215 L 1047 507.7320121441211 L 1048 507.4205006340574 L 1049 507.0892070162607 L 1050 506.7381934578236 L 1051 506.36752582627656 L 1052 505.9772736772276 L 1053 505.56751024131023 L 1054 505.13831241044204 L 1055 504.6897607233956 L 1056 504.22193935068555 L 1057 503.73493607877407 L 1058 503.22884229359795 L 1059 502.7037529634197 L 1060 502.15976662100684 L 1061 501.5969853451427 L 1062 501.015514741471 L 1063 500.4154639226791 L 1064 499.7969454880231 L 1065 499.16007550219837 L 1066 498.5049734735604 L 1067 497.8317623316994 L 1068 497.1405684043716 L 1069 496.4315213937949 L 1070 495.70475435230975 L 1071 494.96040365741237 L 1072 494.19860898616315 L 1073 493.41951328897653 L 1074 492.62326276279634 L 1075 491.8100068236621 L 1076 490.97989807867134 L 1077 490.13309229734244 L 1078 489.269748382385 L 1079 488.3900283398816 L 1080 487.49409724888744 L 1081 486.5821232304538 L 1082 485.65427741607937 L 1083 484.71073391559815 L 1084 483.7516697845074 L 1085 482.7772649907438 L 1086 481.78770238091204 L 1087 480.78316764597383 L 1088 479.7638492864033 L 1089 478.7299385768146 L 1090 477.68162953007015 L 1091 476.61911886087296 L 1092 475.5426059488542 L 1093 474.45229280115905 L 1094 473.34838401454107 L 1095 472.2310867369686 L 1096 471.1006106287542 L 1097 469.95716782321193 L 1098 468.8009728868502 L 1099 467.63224277910956 L 1100 466.4511968116489 L 1101 465.25805660719277 L 1102 464.0530460579433 L 1103 462.83639128356793 L 1104 461.608320588767 L 1105 460.3690644204331 L 1106 459.1188553244077 L 1107 457.85792790184394 L 1108 456.58651876518434 L 1109 455.3048664937598 L 1110 454.01321158902067 L 1111 452.71179642940683 L 1112 451.4008652248657 L 1113 450.08066397102573 L 1114 448.7514404030359 L 1115 447.41344394907827 L 1116 446.0669256835627 L 1117 444.7121382800135 L 1118 443.3493359636543 L 1119 441.9787744637037 L 1120 440.60071096538724 L 1121 439.21540406167696 L 1122 437.82311370476714 L 1123 436.42410115729297 L 1124 435.01862894330606 L 1125 433.606960799011 L 1126 432.1893616232765 L 1127 430.76609742792596 L 1128 429.3374352878213 L 1129 427.9036432907461 L 1130 426.4649904870992 L 1131 425.02174683940797 L 1132 423.574183171669 L 1133 422.1225711185288 L 1134 420.6671830743114 L 1135 419.2082921419042 L 1136 417.74617208150954 L 1137 416.2810972592742 L 1138 414.8133425958046 L 1139 413.3431835145781 L 1140 411.87089589026033 L 1141 410.3967559969365 L 1142 408.92104045626957 L 1143 407.44402618559155 L 1144 405.9659903459413 L 1145 404.487210290054 L 1146 403.0079635103168 L 1147 401.52852758669746 L 1148 400.0491801346562 L 1149 398.5701987530521 L 1150 397.09186097205105 L 1151 395.61444420104743 L 1152 394.13822567660867 L 1153 392.66348241045154 L 1154 391.19049113746195 L 1155 389.7195282637645 L 1156 388.2508698148558 L 1157 386.7847913838079 L 1158 385.3215680795545 L 1159 383.86147447526537 L 1160 382.4047845568238 L 1161 380.951771671413 L 1162 379.5027084762224 L 1163 378.0578668872846 L 1164 376.61751802844907 L 1165 375.18193218050675 L 1166 373.7513787304718 L 1167 372.3261261210317 L 1168 370.90644180017296 L 1169 369.4925921709958 L 1170 368.0848425417231 L 1171 366.68345707591567 L 1172 365.28869874290194 L 1173 363.9008292684317 L 1174 362.52010908556474 L 1175 361.1467972857984 L 1176 359.7811515704509 L 1177 358.42342820230317 L 1178 357.0738819575115 L 1179 355.7327660777987 L 1180 354.4003322229336 L 1181 353.0768304235071 L 1182 351.76250903401365 L 1183 350.4576146862492 L 1184 349.16239224302853 L 1185 347.8770847522386 L 1186 346.60193340123004 L 1187 345.33717747155856 L 1188 344.08305429408404 L 1189 342.8397992044352 L 1190 341.6076454988494 L 1191 340.3868243903939 L 1192 339.1775649655805 L 1193 337.9800941413754 L 1194 336.7946366226198 L 1195 335.62141485986376 L 1196 334.4606490076234 L 1197 333.31255688306896 L 1198 332.1773539251517 L 1199 331.05525315417674 L 1200 329.94646513182977 L 1201 328.8511979216661 L 1202 327.7696570500661 L 1203 326.7020454676695 L 1204 325.6485635112914 L 1205 324.6094088663291 L 1206 323.58477652966667 L 1207 322.57485877308375 L 1208 321.57984510717597 L 1209 320.59992224579327 L 1210 319.6352740710028 L 1211 318.6860815985849 L 1212 317.75252294406357 L 1213 316.8347732892846 L 1214 315.9330048495423 L 1215 315.04738684126335 L 1216 314.17808545025366 L 1217 313.3252638005135 L 1218 312.4890819236273 L 1219 311.66969672873364 L 1220 310.8672619730824 L 1221 310.0819282331806 L 1222 309.313842876538 L 1223 308.5631500340131 L 1224 307.82999057276754 L 1225 307.1145020698319 L 1226 306.4168187862897 L 1227 305.7370716420835 L 1228 305.0753881914474 L 1229 304.4318925989724 L 1230 303.80670561630586 L 1231 303.1999445594932 L 1232 302.6117232869635 L 1233 302.04215217816403 L 1234 301.4913381128474 L 1235 300.95938445101586 L 1236 300.4463910135257 L 1237 299.952454063356 L 1238 299.47766628754505 L 1239 299.0221167797972 L 1240 298.58589102376504 L 1241 298.16907087700787 L 1242 297.7717345556318 L 1243 297.39395661961197 L 1244 297.0358079588018 L 1245 296.69735577963024 L 1246 296.3786635924907 L 1247 296.07979119982343 L 1248 295.8007946848934 L 1249 295.5417264012663 L 1250 295.3026349629847 L 1251 295.08356523544535 L 1252 294.88455832698037 L 1253 294.70565158114323 L 1254 294.5468785697012 L 1255 294.40826908633585 L 1256 294.28984914105206 L 1257 294.1916409552972 L 1258 294.1136629577916 L 1259 294.05592978106995 L 1260 294.0184522587359 L 1261 294.0012374234292 L 1262 294.0042885055055 L 1263 294.0276049324307 L 1264 294.07118232888826 L 1265 294.1350125176 L 1266 294.21908352086075 L 1267 294.3233795627861 L 1268 294.4478810722724 L 1269 294.59256468666956 L 1270 294.7574032561649 L 1271 294.94236584887767 L 1272 295.14741775666386 L 1273 295.3725205016286 L 1274 295.6176318433469 L 1275 295.88270578678987 L 1276 296.16769259095577 L 1277 296.4725387782039 L 1278 296.7971871442894 L 1279 297.14157676909804 L 1280 297.50564302807743 L 1281 297.889317604364 L 1282 298.2925285016027 L 1283 298.71520005745697 L 1284 299.15725295780635 L 1285 299.6186042516306 L 1286 300.0991673665749 L 1287 300.59885212519487 L 1288 301.11756476187895 L 1289 301.6552079404429 L 1290 302.21168077239537 L 1291 302.7868788358691 L 1292 303.3806941952162 L 1293 303.99301542126136 L 1294 304.62372761221246 L 1295 305.27271241522135 L 1296 305.9398480485927 L 1297 306.62500932463627 L 1298 307.32806767315844 L 1299 308.04889116558843 L 1300 308.7873445397342 L 1301 309.5432892251651 L 1302 310.3165833692134 L 1303 311.1070818635941 L 1304 311.9146363716338 L 1305 312.73909535610596 L 1306 313.580304107667 L 1307 314.43810477388746 L 1308 315.3123363888727 L 1309 316.20283490346833 L 1310 317.10943321604384 L 1311 318.03196120384877 L 1312 318.9702457549371 L 1313 319.9241108006506 L 1314 320.893377348659 L 1315 321.8778635165468 L 1316 322.8773845659443 L 1317 323.8917529371931 L 1318 324.9207782845418 L 1319 325.9642675118647 L 1320 327.0220248088948 L 1321 328.0938516879694 L 1322 329.17954702127486 L 1323 330.2789070785889 L 1324 331.39172556550966 L 1325 332.5177936621678 L 1326 333.6569000624105 L 1327 334.8088310134536 L 1328 335.9733703559921 L 1329 337.1502995647613 L 1330 338.339397789545 L 1331 339.54044189661636 L 1332 340.75320651060935 L 1333 341.9774640568103 L 1334 343.21298480386207 L 1335 344.45953690687327 L 1336 345.7168864509237 L 1337 346.9847974949587 L 1338 348.26303211606194 L 1339 349.55135045410395 L 1340 350.8495107567499 L 1341 352.157269424825 L 1342 353.47438105802564 L 1343 354.8005985009687 L 1344 356.1356728895702 L 1345 357.4793536977441 L 1346 358.83138878441457 L 1347 360.1915244408279 L 1348 361.55950543816346 L 1349 362.9350750754257 L 1350 364.31797522761434 L 1351 365.7079463941613 L 1352 367.10472774762604 L 1353 368.5080571826397 L 1354 369.9176713650887 L 1355 371.3333057815299 L 1356 372.75469478882616 L 1357 374.18157166399305 L 1358 375.61366865425134 L 1359 377.05071702726946 L 1360 378.4924471215909 L 1361 379.93858839723646 L 1362 381.388869486471 L 1363 382.8430182447249 L 1364 384.30076180166265 L 1365 385.7618266123865 L 1366 387.2259385087662 L 1367 388.69282275088807 L 1368 390.16220407860885 L 1369 391.6338067632084 L 1370 393.1073546591298 L 1371 394.5825712557982 L 1372 396.059179729508 L 1373 397.5369029953684 L 1374 399.01546375929865 L 1375 400.4945845700609 L 1376 401.97398787132585 L 1377 403.45339605375455 L 1378 404.9325315070923 L 1379 406.4111166722616 L 1380 407.88887409344653 L 1381 409.36552647015674 L 1382 410.84079670926315 L 1383 412.31440797699435 L 1384 413.7860837508831 L 1385 415.2555478716578 L 1386 416.72252459506217 L 1387 418.18673864359886 L 1388 419.6479152581851 L 1389 421.1057802497113 L 1390 422.5600600504924 L 1391 424.0104817656025 L 1392 425.45677322408426 L 1393 426.89866303002 L 1394 428.33588061346086 L 1395 429.76815628119846 L 1396 431.1952212673722 L 1397 432.6168077839036 L 1398 434.0326490707464 L 1399 435.4424794459442 L 1400 436.846034355485 L 1401 438.24305042294577 L 1402 439.6332654989128 L 1403 441.0164187101763 L 1404 442.39225050868197 L 1405 443.760502720235 L 1406 445.1209185929467 L 1407 446.47324284541344 L 1408 447.8172217146206 L 1409 449.1526030035608 L 1410 450.4791361285588 L 1411 451.79657216629226 L 1412 453.1046639005041 L 1413 454.4031658683909 L 1414 455.6918344066646 L 1415 456.97042769727557 L 1416 458.2387058127897 L 1417 459.4964307614105 L 1418 460.7433665316387 L 1419 461.9792791365592 L 1420 463.20393665774816 L 1421 464.41710928879365 L 1422 465.6185693784177 L 1423 466.8080914731954 L 1424 467.98545235986103 L 1425 469.15043110719364 L 1426 470.30280910747524 L 1427 471.4423701175119 L 1428 472.56890029921215 L 1429 473.68218825971354 L 1430 474.7820250910493 L 1431 475.86820440935185 L 1432 476.94052239357904 L 1433 477.99877782376177 L 1434 479.04277211876257 L 1435 480.07230937353927 L 1436 481.08719639590663 L 1437 482.0872427427886 L 1438 483.07226075595537 L 1439 484.04206559723605 L 1440 484.9964752832051 L 1441 485.93531071933046 L 1442 486.85839573358083 L 1443 487.76555710948423 L 1444 488.65662461863184 L 1445 489.5314310526216 L 1446 490.3898122544345 L 1447 491.2316071492389 L 1448 492.0566577746155 L 1449 492.8648093101995 L 1450 493.65591010673273 L 1451 494.42981171451993 L 1452 495.1863689112856 L 1453 495.92543972942514 L 1454 496.6468854826443 L 1455 497.35057079198435 L 1456 498.0363636112257 L 1457 498.7041352516655 L 1458 499.3537604062674 L 1459 499.98511717317433 L 1460 500.5980870785838 L 1461 501.1925550989791 L 1462 501.7684096827137 L 1463 502.3255427709438 L 1464 502.8638498179055 L 1465 503.38322981053284 L 1466 503.88358528741236 L 1467 504.3648223570725 L 1468 504.8268507156019 L 1469 505.26958366359463 L 1470 505.6929381224197 L 1471 506.0968346498106 L 1472 506.4811974547725 L 1473 506.84595441180437 L 1474 507.19103707443367 L 1475 507.51638068805966 L 1476 507.82192420210515 L 1477 508.1076102814725 L 1478 508.37338531730205 L 1479 508.61919943703253 L 1480 508.8450065137592 L 1481 509.0507641748893 L 1482 509.236433810094 L 1483 509.40198057855287 L 1484 509.5473734154919 L 1485 509.6725850380133 L 1486 509.7775919502145 L 1487 509.86237444759746 L 1488 509.92691662076606 L 1489 509.9712063584117 L 1490 509.99523534958576 L 1491 509.99899908525924 L 1492 509.982496859169 L 1493 509.94573176794995 L 1494 509.8887107105543 L 1495 509.8114443869569 L 1496 509.7139472961473 L 1497 509.59623773340905 L 1498 509.4583377868867 L 1499 509.3002733334408 L 1500 509.1220740337923 L 1501 508.9237733269565 L 1502 508.7054084239685 L 1503 508.46702030090046 L 1504 508.20865369117246 L 1505 507.930357077158 L 1506 507.632182681087 L 1507 507.3141864552456 L 1508 506.97642807147713 L 1509 506.6189709099846 L 1510 506.2418820474376 L 1511 505.845232244385 L 1512 505.4290959319774 L 1513 504.99355119799947 L 1514 504.53867977221717 L 1515 504.0645670110413 L 1516 503.5713018815101 L 1517 503.058976944595 L 1518 502.527688337831 L 1519 501.97753575727745 L 1520 501.40862243880895 L 1521 500.82105513874444 L 1522 500.2149441138134 L 1523 499.5904031004667 L 1524 498.94754929353394 L 1525 498.28650332423194 L 1526 497.60738923752825 L 1527 496.9103344688642 L 1528 496.1954698202418 L 1529 495.46292943567835 L 1530 494.71285077603557 L 1531 493.94537459322356 L 1532 493.1606449037897 L 1533 492.35880896189406 L 1534 491.54001723167664 L 1535 490.70442335902356 L 1536 489.85218414273487 L 1537 488.9834595051017 L 1538 488.09841246189654 L 1539 487.1972090917844" stroke-linecap="round" stroke-linejoin="round" stroke-miterlimit="10" stroke-width="40"/></g></svg>