<svg width="293" height="295" viewBox="0 0 293 295" fill="none" xmlns="http://www.w3.org/2000/svg">
<path d="M241.5 86.3C234 74.7 225.1 65.2 213.9 56.9C196.2 43.7 174.9 36 152.7 34.7L147.7 34.4L147.6 17.8C147.5 3.89998 147.6 1.19999 148.1 0.999985C149 0.599985 161.3 1.59999 167.7 2.49999C176.3 3.69999 183.8 5.49999 192.7 8.49999C201.7 11.5 206.9 13.7 214.9 17.9C234 27.9 250.6 42.1 263.9 59.7C267.7 64.8 272.9 72.8 272.7 73.3C272.6 73.7 244.6 89.9 244.1 89.9C243.9 89.9 242.7 88.3 241.5 86.3Z" fill="white"/>
<path d="M259.4 211.9C252 207.6 245.7 203.8 245.5 203.5C245.3 203.1 245.9 201.4 247.4 198.4C263.4 166.5 263.4 128.8 247.4 96.9C246.2 94.4 245.2 92.2 245.3 91.9C245.5 91.3 272.5 75.7 273.4 75.7C275.3 75.6 284.1 95.7 287.4 107.8C291.3 121.9 292.7 132.8 292.7 147.7C292.7 162.5 291.3 173.4 287.4 187.6C284.2 199.3 275.4 219.6 273.4 219.8C273.2 219.7 266.8 216.2 259.4 211.9Z" fill="white"/>
<path d="M15.7 213.4C8.9 199.7 4.50001 186.4 2.10001 171.8C0.700006 163.4 0.199997 157 0.199997 147.2C0.199997 127.9 3.69999 109.9 10.9 92.3C12.7 87.8 18.2 76.4 18.9 75.7C19.2 75.4 46 90.5 47.4 91.7C47.6 91.9 46.7 94 45.5 96.5C39.6 108.2 35.7 121.2 33.9 135.1C33.1 141.1 33.3 155.2 34.1 161.5C35.9 175.2 39.9 188 45.8 199.3C47.3 202.2 47.6 203.1 47.2 203.5C46.3 204.3 19.9 219.5 19.3 219.5C18.9 219.4 17.3 216.8 15.7 213.4Z" fill="white"/>
<path d="M34.9 82.1C27.4 77.8 20.9 73.9 20.6 73.6C20.1 73.1 20.5 72.3 22.8 68.7C42.7 37.2 74.9 14.2 111.3 5.29998C121.5 2.79998 131.1 1.49998 140.7 1.19998L145.1 1.09998V17.7V34.3L140.1 34.6C119.9 35.8 100.7 42.1 84.1 53.2C76.7 58.1 72.5 61.6 66.5 67.6C60.7 73.4 57.1 77.7 52.5 84.7C50.7 87.4 49 89.7 48.9 89.8C48.8 89.9 42.5 86.4 34.9 82.1Z" fill="white"/>
<path d="M34.4 213C41.9 208.7 48.3 205.2 48.6 205.2C49 205.2 50.2 206.6 52.1 209.4C71.7 239.2 104.4 258 140 260.1C142.8 260.3 145.2 260.6 145.4 260.8C145.8 261.3 145.8 292.4 145.4 293.2C144.6 294.9 122.7 292.5 110.6 289.3C96.5 285.6 86.3 281.4 73.4 274C60.6 266.6 51.9 259.9 41.6 249.4C33.1 240.8 19.9 223 20.7 221.2C20.7 221.1 26.9 217.3 34.4 213Z" fill="white"/>
<path d="M147.7 293.8C147.6 293.5 147.5 285.9 147.6 277L147.7 260.8L152.7 260.5C172.9 259.3 192.1 252.9 208.8 241.9C216.2 237 220.4 233.5 226.4 227.5C232.2 221.7 235.8 217.3 240.4 210.4C242.2 207.7 243.9 205.4 244 205.3C244.3 205.2 271.4 220.8 272.2 221.6C272.7 222.1 272.3 222.9 270.1 226.3C256.2 248.2 235.7 266.8 212.6 278.4C193.6 287.9 175 292.8 152.6 294.1C148.8 294.3 147.9 294.2 147.7 293.8Z" fill="white"/>
<path d="M50.4 93.7C50.2 93.8 50.1 118.5 50.2 148.6L50.3 203.2L97.3 230.4C123.2 245.4 144.6 257.6 144.8 257.6C145.2 257.6 145.3 246.4 145.3 202.9V148.2L143.8 147.3C129.2 138.6 50.6 93.5 50.4 93.7ZM76.7 164.5C76.9 180.7 76.9 180.7 80.1 183.9C82.7 186.5 84.6 187.7 104.3 198.4C114.2 203.8 122.7 208.6 123.1 209.1C123.7 209.8 123.8 210.9 123.8 217.3C123.8 222.7 123.6 224.8 123.3 225.2C122.9 225.5 117.6 222.8 103.5 215.1C92.8 209.3 82.9 203.8 81.4 202.8C77.6 200.3 71.9 194.5 69.8 191C65.5 183.7 64.7 178.4 64.7 158.1C64.7 142.6 65 139.1 66.4 135.8C68.8 130.5 73.2 129.3 80.3 132.1C83.4 133.3 122.3 154.8 123.1 155.8C123.7 156.6 123.8 157.6 123.8 164C123.8 168 123.6 171.6 123.4 171.9C122.9 172.7 124 173.3 102.9 161.6C78.8 148.2 79.1 148.4 77.4 149.6C76.6 150.2 76.6 150.7 76.7 164.5Z" fill="white"/>
<path d="M200.1 159.1C199.9 159 198.1 163.7 196.1 169.6C193.3 177.9 192.6 180.2 193.2 180C194.6 179.5 207 172.7 207.2 172.3C207.5 171.9 200.6 159.3 200.1 159.1Z" fill="white"/>
<path d="M242.3 93.8C242.1 93.7 174.9 132.4 151.8 145.8L147.5 148.3V203C147.5 233 147.7 257.6 147.9 257.6C148.1 257.6 150.3 256.5 152.8 255C155.3 253.5 176.3 241.4 199.4 228.1C222.5 214.7 241.7 203.6 242 203.3C242.4 202.9 242.5 193.2 242.5 148.4C242.5 118.5 242.4 93.9 242.3 93.8ZM230.4 189.6C230.3 190 228.1 191.5 225.5 193L220.8 195.7L220.1 194.8C219.7 194.3 218 191.5 216.4 188.5C214.7 185.5 213.3 183.1 213.1 183.1C212.9 183.1 206.8 186.4 199.5 190.5L186.2 197.9L182.5 208.7L178.8 219.5L176.3 221C171 224.2 167.5 226 167.2 225.6C167.1 225.3 169.1 219 171.8 211.5C174.5 204 180.8 186.2 185.8 171.9C190.8 157.6 195.3 145 195.8 144C196.9 141.6 199.4 139.2 201 138.8C203.6 138.3 204.4 139.2 208.4 146.8C210.4 150.6 216.3 161.7 221.4 171.4C226.5 181.1 230.7 189.4 230.4 189.6Z" fill="white"/>
<path d="M146.4 36.9C145.4 36.9 51.8 90.8 51.8 91.4C51.8 91.6 72.9 104 98.7 118.9C124.5 133.9 145.9 146.1 146.3 146.1C146.9 146.1 240.3 92.5 241.2 91.6C241.6 91.2 147.6 36.9 146.4 36.9ZM185.4 96.6C174.7 117.8 173.7 119.7 172.1 120.8C169 123 163.8 122.7 161 120.3C160.1 119.5 157.6 115.1 153 106.2C149.4 99.1 146.2 93.3 146.1 93.3C146 93.3 142.9 99 139.3 105.9C135.7 112.8 132.4 118.9 132.1 119.4C131.8 119.9 130.7 120.7 129.8 121.2C127.7 122.3 123.7 122.6 121.4 121.8C118.4 120.6 117.6 119.3 110.9 105.7C98.4 80.3 95.2 73.2 95.8 72.8C96.1 72.6 99.3 72.4 102.9 72.4C108.6 72.4 109.5 72.5 110 73.1C110.4 73.5 113.9 80.4 117.9 88.5C121.9 96.6 125.3 103.2 125.4 103.2C125.5 103.2 128.6 97.4 132.3 90.4C136 83.4 139.4 77.1 140 76.4C143.1 72.7 149.8 72.8 152.6 76.6C153.2 77.4 156.5 83.5 160 90.3C163.5 97 166.5 102.7 166.7 102.9C166.9 103.1 170.4 96.5 174.6 88.1C178.7 79.8 182.3 72.9 182.6 72.7C182.8 72.5 186.1 72.4 189.8 72.4C195.3 72.4 196.6 72.5 196.8 73C196.9 73.3 191.8 83.9 185.4 96.6Z" fill="white"/>
</svg>
